# AST/ASF file generated using VICON BodyLanguage
# -----------------------------------------------
:version 1.10
:name VICON
:units
  mass 1.0
  length 0.45
  angle deg
:documentation
   .ast/.asf automatically generated from VICON data using
   VICON BodyBuilder and BodyLanguage model FoxedUp or BRILLIANT.MOD
:root
   order TX TY TZ RX RY RZ
   axis XYZ
   position 0 0 0  
   orientation 0 0 0 
:bonedata
  begin
     id 1 
     name lhipjoint
     direction 0.624716 -0.669793 0.401383 
     length 2.38238 
     axis 0 0 0  XYZ
  end
  begin
     id 2 
     name lfemur
     direction 0.34202 -0.939693 0  
     length 6.4574  
     axis 0 0 20  XYZ
    dof rx ry rz
    limits (-160.0 20.0)
           (-70.0 70.0)
           (-60.0 70.0)
  end
  begin
     id 3 
     name ltibia
     direction 0.34202 -0.939693 0   
     length 7.68739   
     axis 0 0 20   XYZ
    dof rx
    limits (-10.0 170.0)
  end
  begin
     id 4 
     name lfoot
     direction 0.0681309 -0.187188 0.979959   
     length 2.46615   
     axis -90 7.62852e-016 20   XYZ
    dof rx rz
    limits (-45.0 90.0)
           (-70.0 20.0)
  end
  begin
     id 5 
     name ltoes
     direction 1.53566e-011 -4.21819e-011 1   
     length 1.2376   
     axis -90 7.62852e-016 20   XYZ
    dof rx
    limits (-90.0 20.0)
  end
  begin
     id 6 
     name rhipjoint
     direction -0.644473 -0.655875 0.393043   
     length 2.43293  
     axis 0 0 0  XYZ 
  end
  begin
     id 7 
     name rfemur
     direction -0.34202 -0.939693 0   
     length 6.7025   
     axis 0 0 -20   XYZ
    dof rx ry rz
    limits (-160.0 20.0)
           (-70.0 70.0)
           (-70.0 60.0)
  end
  begin
     id 8 
     name rtibia
     direction -0.34202 -0.939693 0   
     length 7.80547   
     axis 0 0 -20   XYZ
    dof rx
    limits (-10.0 170.0)
 end
 begin
     id 9 
     name rfoot
     direction -0.0756734 -0.207911 0.975216   
     length 2.40315  
     axis -90 -7.62852e-016 -20   XYZ
    dof rx rz
    limits (-45.0 90.0)
           (-20.0 70.0)
  end
  begin
     id 10 
     name rtoes
     direction -1.5353e-011 -4.21879e-011 1   
     length 1.20477   
     axis -90 -7.62852e-016 -20   XYZ
    dof rx
    limits (-90.0 20.0)
  end
  begin
     id 11 
     name lowerback
     direction 0.0160353 0.987463 -0.157037   
     length 2.18572   
     axis 0 0 0   XYZ
    dof rx ry rz
    limits (-20.0 45.0)
           (-30.0 30.0)
           (-30.0 30.0)
  end
  begin
     id 12 
     name upperback
     direction -0.00499661 0.999756 0.0215076   
     length 2.18016   
     axis 0 0 0   XYZ
    dof rx ry rz
    limits (-20.0 45.0)
           (-30.0 30.0)
           (-30.0 30.0)
  end
  begin
     id 13 
     name thorax
     direction -0.00921346 0.995333 0.0960619   
     length 2.24923   
     axis 0 0 0   XYZ
    dof rx ry rz
    limits (-20.0 45.0)
           (-30.0 30.0)
           (-30.0 30.0)
  end
  begin
     id 14 
     name lowerneck
     direction 0.0274184 0.991181 0.12965   
     length 1.70911   
     axis 0 0 0   XYZ
    dof rx ry rz
    limits (-20.0 45.0)
           (-30.0 30.0)
           (-30.0 30.0)
  end
  begin
     id 15 
     name upperneck
     direction 0.0015627 0.999959 -0.00893559   
     length 1.69312   
     axis 0 0 0   XYZ
    dof rx ry rz
    limits (-20.0 45.0)
           (-30.0 30.0)
           (-30.0 30.0)
  end
  begin
     id 16
     name head
     direction -0.00230242 0.999856 -0.0168327  
     length 1.80241  
     axis 0 0 0   XYZ
    dof rx ry rz
    limits (-20.0 45.0)
           (-30.0 30.0)
           (-30.0 30.0)
  end
  begin
     id 17 
     name lclavicle
     direction 0.955523 0.290741 -0.0494489  
     length 3.84275  
     axis 0 0 0   XYZ
    dof ry rz
    limits (-20.0 10.0)
           (0.0 20.0)
  end
  begin
     id 18 
     name lhumerus
     direction 1 -4.48967e-011 -3.18382e-028   
     length 5.17714   
     axis 180 -30 -90   XYZ
    dof rx ry rz
    limits (-60.0 90.0)
           (-90.0 90.0)
           (-90.0 90.0)
  end
  begin
     id 19
     name lradius
     direction 1 -4.48968e-011 -2.22911e-027   
     length 3.43679   
     axis 180 -30 -90   XYZ
    dof rx
    limits (-10.0 170.0)
  end
  begin
     id 20
     name lwrist
     direction 1 -4.48951e-011 -6.32245e-027   
     length 1.7184   
     axis 3.57107e-015 90 90   XYZ
    dof ry
    limits (-180.0 0.0)
 end
  begin
     id 21 
     name lhand
     direction 1 -4.48924e-011 -1.26431e-026   
     length 0.573117   
     axis 8.06912e-015 90 90   XYZ
    dof rx rz
    limits (-90.0 90.0)
           (-45.0 45.0)
  end
  begin
     id 22 
     name lfingers
     direction 1 -4.49001e-011 -2.52965e-026   
     length 0.462062   
     axis 1.61381e-014 90 90   XYZ
    dof rx
    limits (0.0 90.0)
  end
  begin
     id 23
     name lthumb
     direction 0.707107 -6.35008e-011 0.707107   
     length 0.663431   
     axis -90 45 -1.62303e-014   XYZ
    dof rx rz
    limits (-45.0 45.0)
           (-45.0 45.0)
  end
  begin
     id 24 
     name rclavicle
     direction -0.963917 0.256881 -0.0698287   
     length 3.73057  
     axis 0 0 0   XYZ 
    dof ry rz
    limits (-10.0 20.0)
           (-20.0 0.0)
  end
  begin
     id 25 
     name rhumerus
     direction -1 -4.48962e-011 -2.73982e-027  
     length 5.23908   
     axis 180 30 90   XYZ
    dof rx ry rz
    limits (-90.0 60.0)
           (-90.0 90.0)
           (-90.0 90.0)
  end
  begin
     id 26 
     name rradius
     direction -1 -4.48968e-011 -4.33218e-027   
     length 3.46485   
     axis 180 30 90   XYZ
    dof rx
    limits (-10.0 170.0)
  end
  begin
     id 27 
     name rwrist
     direction -1 -4.48989e-011 -6.32372e-027   
     length 1.73243   
     axis 3.57107e-015 -90 -90   XYZ
    dof ry
    limits (-180.0 0.0)
  end
  begin
     id 28
     name rhand
     direction -1 -4.48948e-011 -1.26448e-026   
     length 0.608752   
     axis 8.06912e-015 -90 -90   XYZ
    dof rx rz
    limits (-90.0 90.0)
           (-45.0 45.0)
  end
  begin
     id 29
     name rfingers
     direction -1 -4.48962e-011 -2.52913e-026   
     length 0.490792   
     axis 1.61381e-014 -90 -90   XYZ
    dof rx
    limits (0.0 90.0)
  end
  begin
     id 30
     name rthumb
     direction -0.707107 -6.34878e-011 0.707107   
     length 0.704682   
     axis -90 -45 1.62303e-014   XYZ
    dof rx rz
    limits (-45.0 45.0)
           (-45.0 45.0)
  end
:hierarchy
  begin
    root lhipjoint rhipjoint lowerback
    lhipjoint lfemur
    lfemur ltibia
    ltibia lfoot
    lfoot ltoes
    rhipjoint rfemur
    rfemur rtibia
    rtibia rfoot
    rfoot rtoes
    lowerback upperback
    upperback thorax
    thorax lowerneck lclavicle rclavicle
    lowerneck upperneck
    upperneck head
    lclavicle lhumerus
    lhumerus lradius
    lradius lwrist
    lwrist lhand lthumb
    lhand lfingers
    rclavicle rhumerus
    rhumerus rradius
    rradius rwrist
    rwrist rhand rthumb
    rhand rfingers
  end

#!OML:ASF G:\JayActor3\Patient Classification 1\Patient 1\Session 6\male.ASF
:FULLY-SPECIFIED
:DEGREES
431
root 42.2897 14.936 4.33809 174.046 -39.7669 -175.039
lowerback 17.3552 -0.528849 5.53494
upperback 6.58787 -0.484635 3.18529
thorax -2.64778 -0.558647 0.342009
lowerneck 5.6288 1.84167 7.53199
upperneck 6.56228 2.79569 -6.80813
head 1.34825 1.40383 -3.57595
rclavicle -4.45278e-014 5.88403e-014
rhumerus -34.9282 9.63311 -87.3758
rradius 125.482
rwrist 15.3258
rhand 21.8316 -18.1461
rfingers 7.12502
rthumb 46.2373 -41.1412
lclavicle -4.45278e-014 5.88403e-014
lhumerus -40.8545 -1.13856 84.4385
lradius 131.938
lwrist 5.95329
lhand 8.79576 38.2219
lfingers 7.12502
lthumb 33.9833 65.0094
rfemur -8.21009 -5.56251 31.1957
rtibia 53.3483
rfoot -33.3344 -13.1944
rtoes -10.9614
lfemur -48.2796 17.5661 -23.2683
ltibia 48.3499
lfoot -20.7867 7.05286
ltoes -16.999
432
root 42.2122 14.96 4.26289 174.157 -39.5208 -175.018
lowerback 17.2285 -0.478473 5.47314
upperback 6.52246 -0.422153 3.1423
thorax -2.65037 -0.522698 0.317641
lowerneck 5.49588 1.88981 7.51686
upperneck 6.30496 2.8632 -6.96184
head 1.29533 1.43941 -3.62546
rclavicle 2.127e-014 1.90833e-014
rhumerus -34.9607 9.6889 -87.4519
rradius 125.482
rwrist 15.361
rhand 21.8022 -18.1598
rfingers 7.12502
rthumb 46.2101 -41.1663
lclavicle 2.127e-014 1.90833e-014
lhumerus -40.9261 -1.02288 84.3895
lradius 132.002
lwrist 5.96576
lhand 8.80056 38.2015
lfingers 7.12502
lthumb 33.9878 64.988
rfemur -7.71704 -5.53581 31.0623
rtibia 52.9559
rfoot -32.9416 -12.9069
rtoes -11.4091
lfemur -47.4735 17.2878 -22.8546
ltibia 47.318
lfoot -20.8529 7.04689
ltoes -16.6658
433
root 42.1339 14.9832 4.18765 174.284 -39.2648 -174.998
lowerback 17.0992 -0.434614 5.39207
upperback 6.45519 -0.371185 3.10811
thorax -2.65391 -0.492885 0.315766
lowerneck 5.38086 1.95456 7.47477
upperneck 6.02589 2.95136 -7.1226
head 1.23363 1.48496 -3.6725
rclavicle 8.40859e-014 2.38542e-015
rhumerus -34.995 9.78422 -87.5164
rradius 125.485
rwrist 15.386
rhand 21.7555 -18.1622
rfingers 7.12502
rthumb 46.1668 -41.187
lclavicle 8.40859e-014 2.38542e-015
lhumerus -41.0142 -0.869174 84.3446
lradius 132.078
lwrist 5.9896
lhand 8.80893 38.192
lfingers 7.12502
lthumb 33.9958 64.9767
rfemur -7.23557 -5.50439 30.9261
rtibia 52.5588
rfoot -32.5704 -12.6037
rtoes -11.8052
lfemur -46.6989 16.9973 -22.4289
ltibia 46.3875
lfoot -20.9061 7.03236
ltoes -16.3603
434
root 42.055 15.0054 4.11228 174.43 -39.0093 -174.98
lowerback 16.9677 -0.395698 5.3007
upperback 6.38176 -0.327172 3.07554
thorax -2.66312 -0.466469 0.322914
lowerneck 5.28233 2.02291 7.42733
upperneck 5.72902 3.04341 -7.28571
head 1.16371 1.5327 -3.71967
rclavicle -2.62396e-014 -6.36111e-015
rhumerus -35.0404 9.89115 -87.575
rradius 125.495
rwrist 15.3995
rhand 21.6974 -18.1554
rfingers 7.12502
rthumb 46.113 -41.2028
lclavicle -2.62396e-014 -6.36111e-015
lhumerus -41.1186 -0.703995 84.2996
lradius 132.16
lwrist 6.01672
lhand 8.8094 38.1816
lfingers 7.12502
lthumb 33.9962 64.9662
rfemur -6.76854 -5.46843 30.7882
rtibia 52.1569
rfoot -32.207 -12.3135
rtoes -12.2328
lfemur -45.9622 16.6922 -22.005
ltibia 45.5572
lfoot -20.9583 6.9838
ltoes -15.956
435
root 41.9755 15.0259 4.03664 174.579 -38.7574 -174.939
lowerback 16.8382 -0.363562 5.21757
upperback 6.29782 -0.28882 3.04743
thorax -2.68451 -0.442758 0.331484
lowerneck 5.19223 2.09664 7.3787
upperneck 5.43427 3.14127 -7.44234
head 1.09357 1.58342 -3.76461
rclavicle 4.94974e-014 -2.14687e-014
rhumerus -35.1035 10.0016 -87.6319
rradius 125.51
rwrist 15.4007
rhand 21.6318 -18.1437
rfingers 7.12502
rthumb 46.052 -41.2165
lclavicle 4.94974e-014 -2.14687e-014
lhumerus -41.2434 -0.5346 84.2521
lradius 132.245
lwrist 6.04683
lhand 8.79864 38.1736
lfingers 7.12502
lthumb 33.986 64.9604
rfemur -6.3186 -5.41532 30.6723
rtibia 51.756
rfoot -31.8531 -12.0323
rtoes -12.663
lfemur -45.2705 16.3803 -21.576
ltibia 44.8284
lfoot -20.9938 6.94733
ltoes -15.6473
